<svg xmlns="http://www.w3.org/2000/svg" xmlns:xlink="http://www.w3.org/1999/xlink" width="40" zoomAndPan="magnify" viewBox="0 0 30 30.000001" height="40" preserveAspectRatio="xMidYMid meet" version="1.0"><defs><g/><clipPath id="eede223ba4"><path d="M 0.484375 0 L 29.515625 0 L 29.515625 29.03125 L 0.484375 29.03125 Z M 0.484375 0 " clip-rule="nonzero"/></clipPath><clipPath id="2c2d5230ee"><path d="M 15 0 C 6.984375 0 0.484375 6.5 0.484375 14.515625 C 0.484375 22.53125 6.984375 29.03125 15 29.03125 C 23.015625 29.03125 29.515625 22.53125 29.515625 14.515625 C 29.515625 6.5 23.015625 0 15 0 Z M 15 0 " clip-rule="nonzero"/></clipPath></defs><g clip-path="url(#eede223ba4)"><g clip-path="url(#2c2d5230ee)"><path fill="#5b75bf" d="M 0.484375 0 L 29.515625 0 L 29.515625 29.03125 L 0.484375 29.03125 Z M 0.484375 0 " fill-opacity="1" fill-rule="nonzero"/></g></g><g fill="#ffffff" fill-opacity="1"><g transform="translate(7.195577, 23.09973)"><g><path d="M 1.3125 0 L 1.3125 -18.734375 L 4.03125 -18.734375 L 4.03125 0 Z M 1.3125 0 "/></g></g></g><g fill="#ffffff" fill-opacity="1"><g transform="translate(12.534898, 23.09973)"><g><path d="M 4.03125 0 L 1.3125 0 L 1.3125 -18.734375 L 8.25 -18.734375 C 9.03125 -18.734375 9.734375 -18.570312 10.359375 -18.25 C 10.992188 -17.9375 11.53125 -17.507812 11.96875 -16.96875 C 12.40625 -16.4375 12.738281 -15.835938 12.96875 -15.171875 C 13.195312 -14.515625 13.3125 -13.84375 13.3125 -13.15625 C 13.3125 -12.46875 13.179688 -11.789062 12.921875 -11.125 C 12.671875 -10.46875 12.289062 -9.867188 11.78125 -9.328125 C 11.28125 -8.796875 10.660156 -8.367188 9.921875 -8.046875 C 9.179688 -7.722656 8.320312 -7.5625 7.34375 -7.5625 L 4.03125 -7.5625 Z M 5.625 -18.484375 L 4.03125 -18.484375 L 4.03125 -7.84375 L 5.625 -7.84375 C 6.445312 -7.84375 7.171875 -7.992188 7.796875 -8.296875 C 8.421875 -8.597656 8.9375 -9 9.34375 -9.5 C 9.757812 -10.007812 10.070312 -10.578125 10.28125 -11.203125 C 10.5 -11.828125 10.609375 -12.460938 10.609375 -13.109375 C 10.609375 -13.773438 10.503906 -14.425781 10.296875 -15.0625 C 10.085938 -15.695312 9.773438 -16.273438 9.359375 -16.796875 C 8.953125 -17.316406 8.4375 -17.726562 7.8125 -18.03125 C 7.1875 -18.332031 6.457031 -18.484375 5.625 -18.484375 Z M 5.625 -18.484375 "/></g></g></g></svg>